<?xml version="1.0" encoding="UTF-8" standalone="no"?>
<svg
   width="456"
   height="456"
   viewBox="0 0 456 456"
   fill="none"
   version="1.1"
   id="svg1"
   sodipodi:docname="splash.svg"
   inkscape:version="1.4 (86a8ad7, 2024-10-11)"
   xmlns:inkscape="http://www.inkscape.org/namespaces/inkscape"
   xmlns:sodipodi="http://sodipodi.sourceforge.net/DTD/sodipodi-0.dtd"
   xmlns="http://www.w3.org/2000/svg"
   xmlns:svg="http://www.w3.org/2000/svg">
  <defs
     id="defs1" />
  <sodipodi:namedview
     id="namedview1"
     pagecolor="#ffffff"
     bordercolor="#000000"
     borderopacity="0.25"
     inkscape:showpageshadow="2"
     inkscape:pageopacity="0.0"
     inkscape:pagecheckerboard="0"
     inkscape:deskcolor="#d1d1d1"
     inkscape:zoom="2.3618785"
     inkscape:cx="180.15321"
     inkscape:cy="249.16608"
     inkscape:window-width="2560"
     inkscape:window-height="1417"
     inkscape:window-x="1912"
     inkscape:window-y="-8"
     inkscape:window-maximized="1"
     inkscape:current-layer="svg1" />
  <path
     fill-rule="evenodd"
     clip-rule="evenodd"
     d="m 354.1191,98.715207 c -33.837,-33.8805 -78.84,-52.548311 -126.79,-52.5655 -98.805,0 -179.217542,80.404003 -179.251922,179.235003 -0.01719,31.594 8.24238,62.432 23.92782,89.609 l -25.4319,92.892 95.023602,-24.925 c 26.1794,14.285 55.6594,21.805 85.6554,21.814 h 0.077 c 98.788,0 179.21,-80.413 179.244,-179.244 0.017,-47.898 -18.608,-92.9263 -52.454,-126.806903 z m -126.79,275.788503 h -0.06 c -26.73,-0.008 -52.952,-7.194 -75.831,-20.765 l -5.4408,-3.231 -56.390202,14.791 15.049402,-54.981 -3.5411,-5.638 c -14.911902,-23.721 -22.793302,-51.139 -22.776102,-79.286 0.0344,-82.1404 66.867202,-148.973303 149.050802,-148.973303 39.793,0.0172 77.198,15.5308 105.328,43.695803 28.131,28.1565 43.61,65.5955 43.593,105.3975 -0.035,82.149 -66.867,148.982 -148.982,148.982 z"
     fill="#25d366"
     id="path1"
     sodipodi:nodetypes="ccccccssccccsccccccccccc" />
  <text
     xml:space="preserve"
     style="font-size:134.136px;text-align:start;writing-mode:lr-tb;direction:ltr;text-anchor:start;fill:#25d366;fill-opacity:1;stroke:#25d366;stroke-width:11.1779;stroke-opacity:1"
     x="115.52192"
     y="268.48019"
     id="text1"><tspan
       sodipodi:role="line"
       id="tspan1"
       x="115.52192"
       y="268.48019"
       style="fill:#25d366;fill-opacity:1;stroke:#25d366;stroke-width:11.1779;stroke-opacity:1">MQ</tspan></text>
</svg>
